<svg width="22" height="22" viewBox="0 0 22 22" fill="white" xmlns="http://www.w3.org/2000/svg"><path d="M11 1.98076C13.9373 1.98076 14.2849 1.99211 15.445 2.04494C16.5175 2.09385 17.0999 2.27287 17.4877 2.42352C17.966 2.59965 18.3988 2.88093 18.754 3.24659C19.1196 3.60177 19.4009 4.0345 19.577 4.51287C19.7277 4.90061 19.9067 5.4831 19.9556 6.5555C20.0084 7.71567 20.0198 8.06324 20.0198 11.0006C20.0198 13.9379 20.0084 14.2855 19.9556 15.4456C19.9067 16.518 19.7277 17.1005 19.577 17.4883C19.3938 17.9625 19.1135 18.3933 18.754 18.7528C18.3944 19.1123 17.9637 19.3927 17.4894 19.5759C17.1017 19.7265 16.5192 19.9055 15.4468 19.9544C14.2871 20.0073 13.9391 20.0186 11.0017 20.0186C8.06442 20.0186 7.71641 20.0073 6.55668 19.9544C5.48428 19.9055 4.90179 19.7265 4.51405 19.5759C4.03568 19.3997 3.60295 19.1185 3.24777 18.7528C2.88211 18.3976 2.60083 17.9649 2.4247 17.4865C2.27405 17.0988 2.09503 16.5163 2.04612 15.4439C1.99329 14.2837 1.98194 13.9361 1.98194 10.9988C1.98194 8.0615 1.99329 7.71393 2.04612 6.55376C2.09503 5.48135 2.27405 4.89886 2.4247 4.51112C2.60083 4.03275 2.88211 3.60002 3.24777 3.24485C3.60295 2.87918 4.03568 2.59791 4.51405 2.42177C4.90179 2.27113 5.48428 2.0921 6.55668 2.0432C7.71685 1.99036 8.06442 1.97901 11.0017 1.97901L11 1.98076ZM11.0017 -0.00292969C8.0142 -0.00292969 7.63956 0.00973306 6.46629 0.0634406C5.29302 0.117148 4.49396 0.304469 3.79533 0.576064C3.06115 0.852438 2.396 1.28544 1.84614 1.84496C1.28662 2.39482 0.85362 3.05997 0.577246 3.79415C0.305652 4.49278 0.119641 5.29359 0.0663702 6.46424C0.0130994 7.63489 0 8.01128 0 10.9988C0 13.9864 0.0126627 14.361 0.0663702 15.5343C0.120078 16.7075 0.305652 17.5049 0.577246 18.2035C0.853732 18.9374 1.28673 19.6022 1.84614 20.1518C2.39581 20.7117 3.06101 21.1448 3.79533 21.4211C4.49396 21.6932 5.29477 21.8792 6.46542 21.9324C7.63607 21.9857 8.01333 21.9988 11.0009 21.9988C13.9884 21.9988 14.363 21.9862 15.5363 21.9324C16.7096 21.8787 17.506 21.6932 18.2047 21.4211C18.9356 21.1387 19.5995 20.7066 20.1536 20.1524C20.7077 19.5983 21.1399 18.9345 21.4223 18.2035C21.6943 17.5049 21.8803 16.704 21.9336 15.5334C21.9869 14.3627 22 13.9855 22 10.9979C22 8.01041 21.9873 7.63577 21.9336 6.4625C21.8799 5.28923 21.6943 4.49278 21.4223 3.79415C21.1461 3.06022 20.7133 2.39534 20.1538 1.84583C19.6041 1.286 18.9389 0.852693 18.2047 0.576064C17.506 0.304469 16.7052 0.118458 15.5346 0.0651872C14.3639 0.0119163 13.9875 -0.0011831 11 -0.0011831L11.0017 -0.00292969Z" fill="white"></path><path d="M10.9995 5.35107C9.88238 5.35107 8.79031 5.68235 7.86142 6.30301C6.93254 6.92367 6.20856 7.80584 5.78104 8.83796C5.35352 9.87008 5.24166 11.0058 5.45961 12.1015C5.67756 13.1972 6.21552 14.2036 7.00547 14.9936C7.79542 15.7836 8.80188 16.3215 9.89758 16.5395C10.9933 16.7574 12.129 16.6456 13.1611 16.218C14.1932 15.7905 15.0754 15.0665 15.6961 14.1377C16.3167 13.2088 16.648 12.1167 16.648 10.9995C16.6481 10.2578 16.502 9.52322 16.2182 8.83789C15.9343 8.15257 15.5182 7.52986 14.9937 7.00534C14.4692 6.48082 13.8465 6.06476 13.1612 5.78092C12.4758 5.49708 11.7413 5.35102 10.9995 5.35107V5.35107ZM10.9995 14.6674C10.2741 14.6674 9.56497 14.4523 8.9618 14.0492C8.35863 13.6462 7.88851 13.0734 7.6109 12.4032C7.33329 11.7329 7.26066 10.9955 7.40218 10.284C7.54371 9.57249 7.89303 8.91894 8.40599 8.40599C8.91894 7.89303 9.57249 7.5437 10.284 7.40218C10.9955 7.26066 11.7329 7.33329 12.4032 7.6109C13.0734 7.88851 13.6462 8.35863 14.0492 8.9618C14.4523 9.56497 14.6674 10.2741 14.6674 10.9995C14.6674 11.9723 14.2809 12.9052 13.5931 13.5931C12.9052 14.2809 11.9723 14.6674 10.9995 14.6674Z" fill="white"></path><path d="M16.8722 6.44721C17.6012 6.44721 18.1922 5.85624 18.1922 5.12723C18.1922 4.39823 17.6012 3.80725 16.8722 3.80725C16.1432 3.80725 15.5522 4.39823 15.5522 5.12723C15.5522 5.85624 16.1432 6.44721 16.8722 6.44721Z" fill="white"></path></svg>