<svg viewBox="0 0 22 24" fill="none" xmlns="http://www.w3.org/2000/svg" class="ff-mb-8 news-card_cardIconShare__1UW8R news-card_sharePrimary__3Bkxu"><path fill-rule="evenodd" clip-rule="evenodd" d="M13.3333 4.41634C13.3333 2.16118 15.1615 0.333008 17.4167 0.333008C19.6718 0.333008 21.5 2.16118 21.5 4.41634C21.5 6.67149 19.6718 8.49967 17.4167 8.49967C16.2767 8.49967 15.2458 8.0325 14.505 7.27916L8.51858 10.9061C8.61509 11.2542 8.66667 11.6209 8.66667 11.9997C8.66667 12.34 8.62504 12.6705 8.54661 12.9865L14.6412 16.5879C15.3697 15.9125 16.345 15.4997 17.4167 15.4997C19.6718 15.4997 21.5 17.3279 21.5 19.583C21.5 21.8382 19.6718 23.6663 17.4167 23.6663C15.1615 23.6663 13.3333 21.8382 13.3333 19.583C13.3333 19.2428 13.3749 18.9122 13.4534 18.5962L7.35871 14.9948C6.63025 15.6702 5.655 16.083 4.58333 16.083C2.32818 16.083 0.5 14.2548 0.5 11.9997C0.5 9.74453 2.32818 7.91634 4.58333 7.91634C5.61523 7.91634 6.55772 8.29911 7.27659 8.93041L13.4111 5.21371C13.3601 4.95582 13.3333 4.68921 13.3333 4.41634ZM17.4167 2.66634C16.4502 2.66634 15.6667 3.44985 15.6667 4.41634C15.6667 5.38283 16.4502 6.16634 17.4167 6.16634C18.3832 6.16634 19.1667 5.38283 19.1667 4.41634C19.1667 3.44985 18.3832 2.66634 17.4167 2.66634ZM4.58333 10.2497C3.61685 10.2497 2.83333 11.0332 2.83333 11.9997C2.83333 12.9662 3.61685 13.7497 4.58333 13.7497C5.54982 13.7497 6.33333 12.9662 6.33333 11.9997C6.33333 11.0332 5.54982 10.2497 4.58333 10.2497ZM17.4167 17.833C16.4502 17.833 15.6667 18.6165 15.6667 19.583C15.6667 20.5495 16.4502 21.333 17.4167 21.333C18.3832 21.333 19.1667 20.5495 19.1667 19.583C19.1667 18.6165 18.3832 17.833 17.4167 17.833Z"></path></svg>